<svg width="16" height="10" viewBox="0 0 16 10" fill="none" xmlns="http://www.w3.org/2000/svg">
<g clip-path="url(#clip0_381_40093)">
<path d="M4 0V1H3L4 0Z" fill="white"/>
<path d="M5 0H4V1H5V0Z" fill="white"/>
<path d="M6 0H5V1H6V0Z" fill="white"/>
<path d="M7 0H6V1H7V0Z" fill="white"/>
<path d="M8 0H7V1H8V0Z" fill="white"/>
<path d="M9 0H8V1H9V0Z" fill="white"/>
<path d="M10 0H9V1H10V0Z" fill="white"/>
<path d="M11 0H10V1H11V0Z" fill="white"/>
<path d="M12 0H11V1H12V0Z" fill="white"/>
<path d="M12 0V1H13L12 0Z" fill="white"/>
<path d="M3 2V1L2 2H3Z" fill="white"/>
<path d="M4 1H3V2H4V1Z" fill="white"/>
<path d="M5 1H4V2H5V1Z" fill="white"/>
<path d="M6 1H5V2H6V1Z" fill="white"/>
<path d="M7 1H6V2H7V1Z" fill="white"/>
<path d="M8 1H7V2H8V1Z" fill="white"/>
<path d="M9 1H8V2H9V1Z" fill="white"/>
<path d="M10 1H9V2H10V1Z" fill="white"/>
<path d="M11 1H10V2H11V1Z" fill="white"/>
<path d="M12 1H11V2H12V1Z" fill="white"/>
<path d="M13 1H12V2H13V1Z" fill="white"/>
<path d="M13 1V2H14L13 1Z" fill="white"/>
<path d="M2 2V3H1L2 2Z" fill="white"/>
<path d="M3 2H2V3H3V2Z" fill="white"/>
<path d="M4 2H3V3H4V2Z" fill="white"/>
<path d="M5 2H4V3H5V2Z" fill="white"/>
<path d="M6 2H5V3H6V2Z" fill="white"/>
<path d="M7 2H6V3H7V2Z" fill="white"/>
<path d="M8 2H7V3H8V2Z" fill="white"/>
<path d="M9 2H8V3H9V2Z" fill="white"/>
<path d="M10 2H9V3H10V2Z" fill="white"/>
<path d="M11 2H10V3H11V2Z" fill="white"/>
<path d="M12 2H11V3H12V2Z" fill="white"/>
<path d="M13 2H12V3H13V2Z" fill="white"/>
<path d="M14 2H13V3H14V2Z" fill="white"/>
<path d="M14 2V3H15L14 2Z" fill="white"/>
<path d="M1 3V4H0L1 3Z" fill="white"/>
<path d="M2 3H1V4H2V3Z" fill="white"/>
<path d="M3 3H2V4H3V3Z" fill="white"/>
<path d="M4 3H3V4H4V3Z" fill="white"/>
<path d="M5 3H4V4H5V3Z" fill="white"/>
<path d="M6 3H5V4H6V3Z" fill="white"/>
<path d="M7 3H6V4H7V3Z" fill="white"/>
<path d="M8 3H7V4H8V3Z" fill="white"/>
<path d="M9 3H8V4H9V3Z" fill="white"/>
<path d="M10 3H9V4H10V3Z" fill="white"/>
<path d="M11 3H10V4H11V3Z" fill="white"/>
<path d="M12 3H11V4H12V3Z" fill="white"/>
<path d="M13 3H12V4H13V3Z" fill="white"/>
<path d="M14 3H13V4H14V3Z" fill="white"/>
<path d="M15 3H14V4H15V3Z" fill="white"/>
<path d="M15 3V4H16L15 3Z" fill="white"/>
<path d="M4 4H3V5H4V4Z" fill="white"/>
<path d="M13 4H12V5H13V4Z" fill="white"/>
<path d="M4 5H3V6H4V5Z" fill="white"/>
<path d="M13 5H12V6H13V5Z" fill="white"/>
<path d="M4 6H3V7H4V6Z" fill="white"/>
<path d="M8 6H7V7H8V6Z" fill="white"/>
<path d="M11 5H10V6H11V5Z" fill="white"/>
<path d="M6 5H5V6H6V5Z" fill="white"/>
<path d="M9 6H8V7H9V6Z" fill="white"/>
<path d="M13 6H12V7H13V6Z" fill="white"/>
<path d="M4 7H3V8H4V7Z" fill="white"/>
<path d="M4 8H3V9H4V8Z" fill="white"/>
<path d="M4 9H3V10H4V9Z" fill="white"/>
<path d="M5 9H4V10H5V9Z" fill="white"/>
<path d="M6 9H5V10H6V9Z" fill="white"/>
<path d="M7 9H6V10H7V9Z" fill="white"/>
<path d="M8 7H7V8H8V7Z" fill="white"/>
<path d="M8 8H7V9H8V8Z" fill="white"/>
<path d="M8 9H7V10H8V9Z" fill="white"/>
<path d="M9 7H8V8H9V7Z" fill="white"/>
<path d="M9 8H8V9H9V8Z" fill="white"/>
<path d="M9 9H8V10H9V9Z" fill="white"/>
<path d="M10 9H9V10H10V9Z" fill="white"/>
<path d="M11 9H10V10H11V9Z" fill="white"/>
<path d="M12 9H11V10H12V9Z" fill="white"/>
<path d="M13 7H12V8H13V7Z" fill="white"/>
<path d="M13 8H12V9H13V8Z" fill="white"/>
<path d="M13 9H12V10H13V9Z" fill="white"/>
</g>
<defs>
<clipPath id="clip0_381_40093">
<rect width="16" height="10" fill="white"/>
</clipPath>
</defs>
</svg>
