<svg width="16" height="10" viewBox="0 0 16 10" fill="none" xmlns="http://www.w3.org/2000/svg">
<path d="M7 1V2H6L7 1Z" fill="white"/>
<path d="M7 5V4H6L7 5Z" fill="white"/>
<path d="M8 1H7V2H8V1Z" fill="white"/>
<path d="M9 1H8V2H9V1Z" fill="white"/>
<path d="M9 1V2H10L9 1Z" fill="white"/>
<path d="M9 5V4H10L9 5Z" fill="white"/>
<path d="M7 2H6V3H7V2Z" fill="white"/>
<path d="M8 2H7V3H8V2Z" fill="white"/>
<path d="M9 2H8V3H9V2Z" fill="white"/>
<path d="M10 2H9V3H10V2Z" fill="white"/>
<path d="M7 3H6V4H7V3Z" fill="white"/>
<path d="M8 3H7V4H8V3Z" fill="white"/>
<path d="M8 4H7V5H8V4Z" fill="white"/>
<path d="M9 3H8V4H9V3Z" fill="white"/>
<path d="M9 4H8V5H9V4Z" fill="white"/>
<path d="M10 3H9V4H10V3Z" fill="white"/>
<path d="M8 5H7V6H8V5Z" fill="white"/>
<path d="M9 5H8V6H9V5Z" fill="white"/>
<path d="M7 6V7H6L7 6Z" fill="white"/>
<path d="M8 6H7V7H8V6Z" fill="white"/>
<path d="M9 6H8V7H9V6Z" fill="white"/>
<path d="M9 6V7H10L9 6Z" fill="white"/>
<path d="M7 7H6V8H7V7Z" fill="white"/>
<path d="M8 7H7V8H8V7Z" fill="white"/>
<path d="M9 7H8V8H9V7Z" fill="white"/>
<path d="M10 7H9V8H10V7Z" fill="white"/>
<path d="M7 8H6V9H7V8Z" fill="white"/>
<path d="M8 8H7V9H8V8Z" fill="white"/>
<path d="M9 8H8V9H9V8Z" fill="white"/>
<path d="M13 1V2H12L13 1Z" fill="white"/>
<path d="M13 5V4H12L13 5Z" fill="white"/>
<path d="M14 1H13V2H14V1Z" fill="white"/>
<path d="M15 1H14V2H15V1Z" fill="white"/>
<path d="M15 1V2H16L15 1Z" fill="white"/>
<path d="M15 5V4H16L15 5Z" fill="white"/>
<path d="M13 2H12V3H13V2Z" fill="white"/>
<path d="M14 2H13V3H14V2Z" fill="white"/>
<path d="M15 2H14V3H15V2Z" fill="white"/>
<path d="M16 2H15V3H16V2Z" fill="white"/>
<path d="M13 3H12V4H13V3Z" fill="white"/>
<path d="M14 3H13V4H14V3Z" fill="white"/>
<path d="M14 4H13V5H14V4Z" fill="white"/>
<path d="M15 3H14V4H15V3Z" fill="white"/>
<path d="M15 4H14V5H15V4Z" fill="white"/>
<path d="M16 3H15V4H16V3Z" fill="white"/>
<path d="M14 5H13V6H14V5Z" fill="white"/>
<path d="M15 5H14V6H15V5Z" fill="white"/>
<path d="M13 6V7H12L13 6Z" fill="white"/>
<path d="M14 6H13V7H14V6Z" fill="white"/>
<path d="M15 6H14V7H15V6Z" fill="white"/>
<path d="M15 6V7H16L15 6Z" fill="white"/>
<path d="M13 7H12V8H13V7Z" fill="white"/>
<path d="M14 7H13V8H14V7Z" fill="white"/>
<path d="M15 7H14V8H15V7Z" fill="white"/>
<path d="M16 7H15V8H16V7Z" fill="white"/>
<path d="M13 8H12V9H13V8Z" fill="white"/>
<path d="M14 8H13V9H14V8Z" fill="white"/>
<path d="M15 8H14V9H15V8Z" fill="white"/>
<path d="M16 8H15V9H16V8Z" fill="white"/>
<path d="M10 8H9V9H10V8Z" fill="white"/>
<path d="M1 1V2H0L1 1Z" fill="white"/>
<path d="M1 5V4H0L1 5Z" fill="white"/>
<path d="M2 1H1V2H2V1Z" fill="white"/>
<path d="M3 1H2V2H3V1Z" fill="white"/>
<path d="M3 1V2H4L3 1Z" fill="white"/>
<path d="M3 5V4H4L3 5Z" fill="white"/>
<path d="M1 2H0V3H1V2Z" fill="white"/>
<path d="M2 2H1V3H2V2Z" fill="white"/>
<path d="M3 2H2V3H3V2Z" fill="white"/>
<path d="M4 2H3V3H4V2Z" fill="white"/>
<path d="M1 3H0V4H1V3Z" fill="white"/>
<path d="M2 3H1V4H2V3Z" fill="white"/>
<path d="M2 4H1V5H2V4Z" fill="white"/>
<path d="M3 3H2V4H3V3Z" fill="white"/>
<path d="M3 4H2V5H3V4Z" fill="white"/>
<path d="M4 3H3V4H4V3Z" fill="white"/>
<path d="M2 5H1V6H2V5Z" fill="white"/>
<path d="M3 5H2V6H3V5Z" fill="white"/>
<path d="M1 6V7H0L1 6Z" fill="white"/>
<path d="M2 6H1V7H2V6Z" fill="white"/>
<path d="M3 6H2V7H3V6Z" fill="white"/>
<path d="M3 6V7H4L3 6Z" fill="white"/>
<path d="M1 7H0V8H1V7Z" fill="white"/>
<path d="M2 7H1V8H2V7Z" fill="white"/>
<path d="M3 7H2V8H3V7Z" fill="white"/>
<path d="M4 7H3V8H4V7Z" fill="white"/>
<path d="M1 8H0V9H1V8Z" fill="white"/>
<path d="M2 8H1V9H2V8Z" fill="white"/>
<path d="M3 8H2V9H3V8Z" fill="white"/>
<path d="M4 8H3V9H4V8Z" fill="white"/>
</svg>
